<?xml version="1.0" encoding="UTF-8" standalone="no"?>
<svg
   xmlns:dc="http://purl.org/dc/elements/1.1/"
   xmlns:cc="http://creativecommons.org/ns#"
   xmlns:rdf="http://www.w3.org/1999/02/22-rdf-syntax-ns#"
   xmlns:svg="http://www.w3.org/2000/svg"
   xmlns="http://www.w3.org/2000/svg"
   xmlns:sodipodi="http://sodipodi.sourceforge.net/DTD/sodipodi-0.dtd"
   xmlns:inkscape="http://www.inkscape.org/namespaces/inkscape"
   version="1.2"
   width="115"
   height="85"
   viewBox="0 0 170 165"
   preserveAspectRatio="true"
   id="svg2"
   inkscape:version="0.91 r13725"
   sodipodi:docname="Freifunk-logo.svg">
  <metadata
     id="metadata50">
    <rdf:RDF>
      <cc:Work
         rdf:about="">
        <dc:format>image/svg+xml</dc:format>
        <dc:type
           rdf:resource="http://purl.org/dc/dcmitype/StillImage" />
      </cc:Work>
    </rdf:RDF>
  </metadata>
  <defs
     id="defs48" />
  <sodipodi:namedview
     pagecolor="#ffffff"
     bordercolor="#666666"
     borderopacity="1"
     objecttolerance="10"
     gridtolerance="10"
     guidetolerance="10"
     inkscape:pageopacity="0"
     inkscape:pageshadow="2"
     inkscape:window-width="1436"
     inkscape:window-height="877"
     id="namedview46"
     showgrid="false"
     inkscape:zoom="2.8606061"
     inkscape:cx="53.549928"
     inkscape:cy="98.640182"
     inkscape:window-x="0"
     inkscape:window-y="19"
     inkscape:window-maximized="1"
     inkscape:current-layer="svg2" />
  <!-- Designed by Monic Meisel and hand-coded as SVG by Alina Friedrichsen -->
  <g
     id="g8"
     transform="matrix(1.5737465,0,0,1.5737465,-52.395996,-15.487771)">
    <circle
       cx="36"
       cy="54"
       r="22"
       transform="matrix(1.477616,0,0,1.5065066,-3.122124,-2.4350016)"
       stroke-miterlimit="4"
       id="circle10"
       style="fill:none;stroke:#de2c68;stroke-width:1.14544892;stroke-miterlimit:4;stroke-dasharray:none;stroke-opacity:1" />
    <circle
       cx="74"
       cy="44"
       r="22"
       transform="matrix(1.5950476,0,0,1.6223254,-10.072136,-9.1778182)"
       stroke-miterlimit="4"
       id="circle12"
       style="fill:none;stroke:#de2c68;stroke-width:1.06239557;stroke-miterlimit:4;stroke-dasharray:none;stroke-opacity:1" />
    <circle
       cx="74"
       cy="44"
       r="29"
       transform="matrix(1.5831269,0,0,1.5986441,-9.3397104,-8.1360194)"
       stroke-miterlimit="4"
       id="circle14"
       style="fill:none;stroke:#de2c68;stroke-width:5.81192684;stroke-miterlimit:4;stroke-dasharray:none;stroke-opacity:1" />
    <polygon
       points="31,44 26,44 30,48 22,48 22,52 30,52 26,56 31,56 37,50 "
       transform="matrix(1.4493674,0,0,1.3737988,-2.70016,2.5042672)"
       id="polygon16"
       style="fill:#ffcc33;fill-opacity:1" />
    <polygon
       points="81,59 75,53 88,53 88,47 75,47 81,41 73,41 64,50 73,59 "
       transform="matrix(1.5159598,0,0,1.568926,-5.2784314,-7.233634)"
       id="polygon18"
       style="fill:#ffcc33;fill-opacity:1" />
  </g>
</svg>
